<svg width="175" height="54" viewBox="0 0 175 54" fill="none" xmlns="http://www.w3.org/2000/svg">
<g clip-path="url(#clip0_406_4)">
<path d="M38.2812 14.8438C44.3202 14.8438 49.2187 19.7422 49.2187 25.7812C49.2187 31.8203 44.3202 36.7188 38.2812 36.7188C37.5155 36.7188 36.7655 36.6406 36.0468 36.4922C36.9296 35.1406 37.5702 33.6328 37.9296 32.0234C38.0468 32.0313 38.164 32.0312 38.2812 32.0312C41.7265 32.0312 44.5312 29.2266 44.5312 25.7812C44.5312 22.3359 41.7265 19.5312 38.2812 19.5312V14.8438Z" fill="#C69D70"/>
<path d="M37.1796 34.3594C43.0077 34.125 47.6562 29.3203 47.6562 23.4375C47.6562 21.7109 47.2499 20.0781 46.539 18.6172C48.2108 20.5391 49.2187 23.0469 49.2187 25.7813C49.2187 31.8203 44.3202 36.7188 38.2812 36.7188C37.5155 36.7188 36.7655 36.6406 36.0468 36.4922C36.4843 35.8203 36.8671 35.1094 37.1796 34.3594Z" fill="#A05B10"/>
<path d="M40.6249 42.9688C41.4843 42.9688 42.1874 43.6719 42.1874 44.5312C42.1874 45.3906 41.4843 46.0938 40.6249 46.0938H35.9374H7.03116H2.34366C1.91397 46.0938 1.52335 45.9219 1.2421 45.6328C0.953033 45.3516 0.781158 44.9609 0.781158 44.5312C0.781158 43.6719 1.48428 42.9688 2.34366 42.9688H6.57803H11.4218H11.5468H12.414H24.2187H40.6249Z" fill="#C69D70"/>
<path d="M38.2812 23.4375V28.9062C38.2812 29.9766 38.164 31.0234 37.9296 32.0234C37.5702 33.6328 36.9296 35.1406 36.0468 36.4922C33.5624 40.3906 29.1874 42.9688 24.2187 42.9688H12.414C15.7733 40.9453 19.2968 36.5703 16.703 27.9063C13.5702 28.8438 11.328 29.9844 9.7421 31.2187L9.70303 31.2578C8.64053 30.2187 7.25772 29.1953 5.46866 28.2266V23.4375H26.5624V27.3438C26.5624 28.2031 27.2655 28.9062 28.1249 28.9062H31.2499C32.1093 28.9062 32.8124 28.2031 32.8124 27.3438V23.4375H38.2812Z" fill="#F29B30"/>
<path d="M38.2812 23.4375V28.9062C38.2812 29.9766 38.164 31.0234 37.9296 32.0234C37.5702 33.6328 36.9296 35.1406 36.0468 36.4922C33.5624 40.3906 29.1874 42.9688 24.2187 42.9688H12.414C13.8983 42.0781 15.4218 40.7188 16.4218 38.7344C19.039 37.625 21.2577 35.7422 22.7655 33.3672C23.6483 32.0156 24.289 30.5078 24.6483 28.8984C24.8827 27.8984 24.9999 26.8516 24.9999 25.7812V23.4375H26.5624V27.3438C26.5624 28.2031 27.2655 28.9062 28.1249 28.9062H31.2499C32.1093 28.9062 32.8124 28.2031 32.8124 27.3438V23.4375H38.2812Z" fill="#F25D27"/>
<path d="M38.2812 19.5312V23.4375H32.8124V21.0938C32.8124 20.2344 32.1093 19.5312 31.2499 19.5312H29.6874V11.7188H36.7187C37.578 11.7188 38.2812 12.4219 38.2812 13.2812V14.8438V19.5312Z" fill="#F2DCD8"/>
<path d="M35.9374 46.0938V47.6562C35.9374 48.5156 35.2343 49.2188 34.3749 49.2188H8.59366C7.73428 49.2188 7.03116 48.5156 7.03116 47.6562V46.0938H35.9374Z" fill="#A05B10"/>
<path d="M32.8124 23.4375V27.3438C32.8124 28.2031 32.1093 28.9062 31.2499 28.9062H28.1249C27.2655 28.9062 26.5624 28.2031 26.5624 27.3438V23.4375V21.0938C26.5624 20.2344 27.2655 19.5312 28.1249 19.5312H29.6874H31.2499C32.1093 19.5312 32.8124 20.2344 32.8124 21.0938V23.4375Z" fill="#97BF6F"/>
<path d="M32.8124 21.0938V27.3438C32.8124 28.2031 32.1093 28.9062 31.2499 28.9062H28.1249C27.2655 28.9062 26.5624 28.2031 26.5624 27.3438H29.6874C30.5468 27.3438 31.2499 26.6406 31.2499 25.7812V19.5312C32.1093 19.5312 32.8124 20.2344 32.8124 21.0938Z" fill="#678C3B"/>
<path d="M29.6874 11.7188V19.5312H28.1249C27.2655 19.5312 26.5624 20.2344 26.5624 21.0938V23.4375H5.46866V13.2812C5.46866 12.4219 6.17178 11.7188 7.03116 11.7188H29.6874Z" fill="#F7EAE8"/>
<path d="M22.115 11.7188C24.0727 15.0595 25.0867 19.3103 24.8795 23.4375H26.5624V21.0938C26.5624 20.2344 27.2655 19.5312 28.1249 19.5312H29.6874V11.7188H22.115Z" fill="#F2DCD8"/>
<path d="M16.703 27.9062C19.2968 36.5703 15.7733 40.9453 12.414 42.9688H11.5468C12.7812 40.6484 14.3515 35.8125 9.70303 31.2578L9.7421 31.2187C11.328 29.9844 13.5702 28.8438 16.703 27.9062Z" fill="#97BF6F"/>
<path d="M12.414 42.9688H11.5468C12.1249 41.8828 12.7812 40.2422 12.828 38.3359C14.9296 36.3281 16.5546 33.125 15.8827 28.1641C16.1483 28.0781 16.4218 27.9922 16.703 27.9062C19.2968 36.5703 15.7733 40.9453 12.414 42.9688Z" fill="#678C3B"/>
<path d="M11.4218 42.9688H6.57803C3.60928 40.8906 -0.382905 36.2266 3.71866 27.3438C4.34366 27.6328 4.92178 27.9219 5.46866 28.2266C7.25772 29.1953 8.64053 30.2187 9.70303 31.2578C14.3515 35.8125 12.7812 40.6484 11.5468 42.9688H11.4218V42.9688Z" fill="#97BF6F"/>
<path d="M9.20303 42.9688C10.4374 40.6484 12.0077 35.8125 7.35928 31.2578C6.32803 30.25 4.99991 29.2578 3.28897 28.3203C3.42178 28 3.56241 27.6719 3.71866 27.3438C4.34366 27.6328 4.92178 27.9219 5.46866 28.2266C7.25772 29.1953 8.64053 30.2187 9.70303 31.2578C14.3515 35.8125 12.7812 40.6484 11.5468 42.9688H9.20303V42.9688Z" fill="#678C3B"/>
<path d="M33.5929 29.6981C33.161 29.6287 32.7644 29.9141 32.6926 30.339C32.4774 31.6207 31.9594 32.8582 31.1957 33.9179C30.9439 34.2681 31.0232 34.7563 31.3727 35.0089C31.5115 35.1081 31.671 35.1562 31.8289 35.1562C32.0715 35.1562 32.3111 35.0433 32.4637 34.8319C33.367 33.5784 33.9789 32.1144 34.2337 30.5983C34.3055 30.1728 34.0179 29.7699 33.5929 29.6981ZM29.2305 35.8833C28.5713 36.3586 27.8488 36.7378 27.0828 37.0094C26.6762 37.1536 26.4633 37.5999 26.6075 38.0065C26.7212 38.327 27.0226 38.5269 27.3437 38.5269C27.4308 38.5269 27.5185 38.5124 27.6047 38.4818C28.511 38.1606 29.3655 37.7128 30.1445 37.1497C30.4947 36.8972 30.5733 36.4089 30.3208 36.0595C30.0688 35.7102 29.5813 35.6308 29.2305 35.8833Z" fill="black"/>
<path d="M39.0623 14.1021V13.2813C39.0623 11.9889 38.0109 10.9376 36.7185 10.9376H7.03104C5.73865 10.9376 4.68729 11.9889 4.68729 13.2813V26.9428C4.47567 26.8393 4.26463 26.7355 4.04569 26.6343C3.85721 26.5481 3.64285 26.5389 3.44832 26.6107C3.25379 26.6825 3.09588 26.8282 3.00887 27.0166C-0.586054 34.8026 1.78104 39.5575 4.42791 42.1876H2.34354C1.05115 42.1876 -0.000213623 43.2389 -0.000213623 44.5313C-0.000213623 45.8237 1.05115 46.8751 2.34354 46.8751H6.24979V47.6563C6.24979 48.9487 7.30115 50.0001 8.59354 50.0001H34.3748C35.6672 50.0001 36.7185 48.9487 36.7185 47.6563V46.8751H40.6248C41.9172 46.8751 42.9685 45.8237 42.9685 44.5313C42.9685 43.2389 41.9172 42.1876 40.6248 42.1876H30.8079C33.0621 41.0644 34.9947 39.3943 36.4196 37.339C37.032 37.4362 37.6532 37.5001 38.281 37.5001C44.7432 37.5001 49.9998 32.2434 49.9998 25.7813C49.9998 19.5829 45.1599 14.5072 39.0623 14.1021ZM39.0623 20.375C41.7078 20.7562 43.7498 23.0321 43.7498 25.7813C43.7498 28.5996 41.6058 30.9261 38.8637 31.218C38.9826 30.4628 39.0623 29.6945 39.0623 28.9063V20.375ZM37.4998 13.2813V22.6563H33.5935V21.0938C33.5935 19.8014 32.5422 18.7501 31.2498 18.7501H30.4685V12.5001H36.7185C37.1496 12.5001 37.4998 12.8503 37.4998 13.2813ZM31.2498 20.3126C31.6808 20.3126 32.031 20.6628 32.031 21.0938V27.3438C32.031 27.7749 31.6808 28.1251 31.2498 28.1251H28.1248C27.6937 28.1251 27.3435 27.7749 27.3435 27.3438V21.0938C27.3435 20.6628 27.6937 20.3126 28.1248 20.3126H31.2498ZM7.03104 12.5001H28.906V18.7501H28.1248C26.8324 18.7501 25.781 19.8014 25.781 21.0938V22.6563H6.24979V13.2813C6.24979 12.8503 6.59998 12.5001 7.03104 12.5001ZM4.1075 28.3952C8.17625 30.4047 10.7115 32.8301 11.6469 35.6126C12.4551 38.0165 11.8924 40.2628 11.2675 41.7393C8.83719 39.3455 5.46854 35.1809 5.46854 30.4688C5.46854 30.037 5.11912 29.6876 4.68729 29.6876C4.25545 29.6876 3.90604 30.037 3.90604 30.4688C3.90604 35.3083 6.98504 39.53 9.51825 42.1876H6.83612C3.77762 39.9611 0.977911 35.8016 4.1075 28.3952ZM12.9784 41.6404C13.4868 40.1955 13.8422 38.2959 13.4201 36.22L13.7609 35.8009C14.4765 34.9266 15.1517 34.1011 15.6484 33.184C15.8537 32.8048 15.7125 32.3311 15.3326 32.1251C14.9534 31.9221 14.4797 32.061 14.2736 32.4409C13.9164 33.1008 13.4116 33.7521 12.8644 34.4265C12.4074 33.3482 11.7419 32.3261 10.8767 31.3614C12.272 30.4117 14.0443 29.583 16.1695 28.891C18.0076 35.819 15.6827 39.5974 12.9784 41.6404ZM35.156 47.6563C35.156 48.0874 34.8058 48.4376 34.3748 48.4376H8.59354C8.16248 48.4376 7.81229 48.0874 7.81229 47.6563V46.8751H35.156V47.6563ZM40.6248 43.7501C41.0558 43.7501 41.406 44.1003 41.406 44.5313C41.406 44.9624 41.0558 45.3126 40.6248 45.3126H2.34354C1.91248 45.3126 1.56229 44.9624 1.56229 44.5313C1.56229 44.1003 1.91248 43.7501 2.34354 43.7501H40.6248ZM24.2185 42.1876H14.7501C17.339 39.8114 19.7673 35.4166 17.4513 27.6818C17.3269 27.2683 16.8935 27.0348 16.4785 27.1577C13.7347 27.9793 11.4805 29.0174 9.75389 30.2436C8.77039 29.3627 7.60145 28.5366 6.24979 27.7674V24.2188H25.781V27.3438C25.781 28.6362 26.8324 29.6876 28.1248 29.6876H31.2498C32.5422 29.6876 33.5935 28.6362 33.5935 27.3438V24.2188H37.4998V28.9063C37.4998 36.2297 31.542 42.1876 24.2185 42.1876ZM38.281 35.9376C37.9556 35.9376 37.6317 35.9187 37.3102 35.8886C37.8292 34.9194 38.2318 33.8822 38.5267 32.8002C42.2897 32.6693 45.3124 29.5756 45.3124 25.7813C45.3124 22.1683 42.5729 19.1863 39.0624 18.7962V15.6647C44.2975 16.0662 48.4374 20.4451 48.4374 25.7814C48.4373 31.3813 43.881 35.9376 38.281 35.9376ZM25.9267 7.61949C26.6378 9.49635 29.2364 10.0799 29.5301 10.1402C29.5827 10.1508 29.6361 10.1562 29.688 10.1562C30.0504 10.1562 30.3746 9.90211 30.4516 9.53365C30.5387 9.11178 30.2678 8.6982 29.8459 8.60973C29.3172 8.49908 27.731 7.97721 27.3869 7.06324C27.1984 6.56353 27.3945 5.92183 27.9682 5.15592C28.9052 3.90777 29.2042 2.78014 28.8586 1.80514C28.3833 0.46617 26.9169 0.0649008 26.7514 0.0236899C26.3363 -0.0808023 25.9159 0.171737 25.8084 0.587459C25.7015 1.0025 25.9526 1.4275 26.3677 1.53805C26.3761 1.54029 27.1924 1.77076 27.3877 2.33307C27.5395 2.77096 27.3022 3.44088 26.7185 4.219C25.8016 5.44137 25.5347 6.5858 25.9267 7.61949ZM20.458 7.61949C21.169 9.49635 23.7677 10.0799 24.0613 10.1402C24.114 10.1508 24.1674 10.1562 24.2192 10.1562C24.5816 10.1562 24.9058 9.90211 24.9829 9.53365C25.0699 9.11178 24.799 8.6982 24.3771 8.60973C23.8484 8.49908 22.2623 7.97721 21.9181 7.06324C21.7297 6.56353 21.9258 5.92183 22.4995 5.15592C23.4364 3.90777 23.7354 2.78014 23.3898 1.80514C22.9145 0.46617 21.4481 0.0649008 21.2826 0.0236899C20.8676 -0.0808023 20.4465 0.171737 20.3396 0.587459C20.2328 1.0025 20.4839 1.4275 20.8989 1.53805C20.9073 1.54029 21.7236 1.77076 21.9189 2.33307C22.0708 2.77096 21.8335 3.44088 21.2498 4.219C20.3329 5.44137 20.0659 6.5858 20.458 7.61949ZM14.9892 7.61949C15.7003 9.49635 18.2989 10.0799 18.5926 10.1402C18.6452 10.1508 18.6986 10.1562 18.7505 10.1562C19.1129 10.1562 19.4371 9.90211 19.5141 9.53365C19.6012 9.11178 19.3303 8.6982 18.9084 8.60973C18.3797 8.49908 16.7935 7.97721 16.4494 7.06324C16.2609 6.56353 16.457 5.92183 17.0307 5.15592C17.9677 3.90777 18.2667 2.78014 17.9211 1.80514C17.4458 0.46617 15.9794 0.0649008 15.8139 0.0236899C15.3988 -0.0808023 14.9777 0.171737 14.8709 0.587459C14.764 1.0025 15.0151 1.4275 15.4302 1.53805C15.4386 1.54029 16.2549 1.77076 16.4502 2.33307C16.602 2.77096 16.3647 3.44088 15.781 4.219C14.8641 5.44137 14.5972 6.5858 14.9892 7.61949Z" fill="black"/>
</g>
<path d="M65.4773 12.008C65.8773 12.024 66.3893 12.04 67.0133 12.056C67.6373 12.072 68.2613 12.08 68.8853 12.08C69.6693 12.08 70.4133 12.072 71.1173 12.056C71.8213 12.04 72.3173 12.032 72.6053 12.032C74.4933 12.032 75.9013 12.384 76.8293 13.088C77.7733 13.792 78.2453 14.696 78.2453 15.8C78.2453 16.36 78.0933 16.92 77.7893 17.48C77.5013 18.04 77.0293 18.544 76.3733 18.992C75.7333 19.44 74.8933 19.776 73.8533 20V20.048C75.2613 20.176 76.3733 20.464 77.1893 20.912C78.0213 21.344 78.6133 21.864 78.9653 22.472C79.3173 23.064 79.4933 23.688 79.4933 24.344C79.4933 25.32 79.2373 26.16 78.7253 26.864C78.2293 27.552 77.5093 28.08 76.5653 28.448C75.6213 28.816 74.4853 29 73.1573 29C72.8053 29 72.2693 28.992 71.5493 28.976C70.8293 28.944 69.9573 28.928 68.9333 28.928C68.2773 28.928 67.6373 28.936 67.0133 28.952C66.3893 28.952 65.8773 28.968 65.4773 29V28.52C66.0053 28.488 66.3973 28.424 66.6533 28.328C66.9253 28.232 67.1013 28.04 67.1813 27.752C67.2773 27.464 67.3253 27.032 67.3253 26.456V14.552C67.3253 13.96 67.2773 13.528 67.1813 13.256C67.1013 12.968 66.9253 12.776 66.6533 12.68C66.3973 12.568 66.0053 12.504 65.4773 12.488V12.008ZM72.1973 12.488C71.5413 12.488 71.1093 12.624 70.9013 12.896C70.7093 13.168 70.6133 13.72 70.6133 14.552V26.456C70.6133 27.016 70.6613 27.44 70.7573 27.728C70.8533 28.016 71.0213 28.208 71.2613 28.304C71.5013 28.4 71.8533 28.448 72.3173 28.448C73.6293 28.448 74.5733 28.088 75.1493 27.368C75.7413 26.632 76.0373 25.592 76.0373 24.248C76.0373 23.016 75.7173 22.064 75.0773 21.392C74.4533 20.72 73.4133 20.384 71.9573 20.384H69.7733C69.7733 20.384 69.7733 20.32 69.7733 20.192C69.7733 20.048 69.7733 19.976 69.7733 19.976H71.8373C72.6533 19.976 73.2853 19.8 73.7333 19.448C74.1813 19.08 74.4853 18.6 74.6453 18.008C74.8053 17.4 74.8853 16.752 74.8853 16.064C74.8853 14.88 74.6773 13.992 74.2613 13.4C73.8453 12.792 73.1573 12.488 72.1973 12.488Z" fill="#54412D"/>
<path d="M87.1078 16.256C87.6998 16.256 88.2438 16.328 88.7398 16.472C89.2518 16.6 89.6918 16.784 90.0598 17.024C90.4438 17.264 90.7478 17.568 90.9718 17.936C91.1958 18.288 91.3078 18.68 91.3078 19.112C91.3078 19.64 91.1478 20.064 90.8278 20.384C90.5078 20.704 90.1078 20.864 89.6278 20.864C89.1318 20.864 88.7238 20.72 88.4038 20.432C88.0998 20.144 87.9478 19.76 87.9478 19.28C87.9478 18.816 88.0838 18.432 88.3558 18.128C88.6278 17.824 88.9558 17.624 89.3398 17.528C89.1958 17.32 88.9718 17.152 88.6678 17.024C88.3638 16.88 88.0278 16.808 87.6598 16.808C87.1798 16.808 86.7478 16.936 86.3638 17.192C85.9798 17.432 85.6438 17.8 85.3558 18.296C85.0838 18.776 84.8678 19.376 84.7078 20.096C84.5638 20.8 84.4918 21.616 84.4918 22.544C84.4918 23.84 84.6438 24.864 84.9478 25.616C85.2678 26.368 85.6758 26.904 86.1718 27.224C86.6678 27.528 87.1958 27.68 87.7558 27.68C88.0918 27.68 88.4518 27.616 88.8358 27.488C89.2198 27.36 89.5958 27.144 89.9638 26.84C90.3478 26.536 90.6918 26.104 90.9958 25.544L91.4518 25.712C91.2758 26.272 90.9878 26.832 90.5878 27.392C90.2038 27.952 89.6998 28.416 89.0758 28.784C88.4518 29.152 87.6918 29.336 86.7958 29.336C85.7718 29.336 84.8438 29.104 84.0118 28.64C83.1798 28.16 82.5158 27.44 82.0198 26.48C81.5398 25.52 81.2998 24.328 81.2998 22.904C81.2998 21.496 81.5478 20.304 82.0438 19.328C82.5398 18.336 83.2278 17.576 84.1078 17.048C85.0038 16.52 86.0038 16.256 87.1078 16.256Z" fill="#54412D"/>
<path d="M98.8478 16.256C100.256 16.256 101.36 16.68 102.16 17.528C102.96 18.376 103.36 19.728 103.36 21.584H95.2718L95.2478 21.128H100.576C100.608 20.344 100.56 19.624 100.432 18.968C100.304 18.296 100.096 17.76 99.8078 17.36C99.5358 16.96 99.1758 16.76 98.7278 16.76C98.1198 16.76 97.5918 17.12 97.1438 17.84C96.6958 18.544 96.4158 19.704 96.3038 21.32L96.3998 21.464C96.3678 21.672 96.3438 21.896 96.3278 22.136C96.3278 22.376 96.3278 22.616 96.3278 22.856C96.3278 23.96 96.4878 24.872 96.8078 25.592C97.1278 26.312 97.5438 26.84 98.0558 27.176C98.5678 27.512 99.0958 27.68 99.6398 27.68C100.008 27.68 100.384 27.624 100.768 27.512C101.152 27.4 101.528 27.192 101.896 26.888C102.264 26.584 102.6 26.152 102.904 25.592L103.36 25.784C103.184 26.344 102.888 26.904 102.472 27.464C102.072 28.008 101.552 28.456 100.912 28.808C100.272 29.16 99.5198 29.336 98.6558 29.336C97.5678 29.336 96.6078 29.096 95.7758 28.616C94.9438 28.136 94.2958 27.424 93.8318 26.48C93.3678 25.52 93.1358 24.352 93.1358 22.976C93.1358 21.52 93.3758 20.296 93.8558 19.304C94.3518 18.312 95.0318 17.56 95.8958 17.048C96.7598 16.52 97.7438 16.256 98.8478 16.256ZM101.44 10.88C101.888 10.88 102.28 11.048 102.616 11.384C102.952 11.72 103.12 12.112 103.12 12.56C103.12 13.024 102.952 13.424 102.616 13.76C102.28 14.08 101.888 14.24 101.44 14.24C100.976 14.24 100.584 14.08 100.264 13.76C99.9438 13.424 99.7838 13.024 99.7838 12.56C99.7838 12.112 99.9438 11.72 100.264 11.384C100.584 11.048 100.976 10.88 101.44 10.88ZM96.1118 10.88C96.5598 10.88 96.9438 11.048 97.2638 11.384C97.5998 11.72 97.7678 12.112 97.7678 12.56C97.7678 13.024 97.5998 13.424 97.2638 13.76C96.9278 14.08 96.5438 14.24 96.1118 14.24C95.6478 14.24 95.2478 14.08 94.9118 13.76C94.5918 13.424 94.4318 13.024 94.4318 12.56C94.4318 12.112 94.5918 11.72 94.9118 11.384C95.2478 11.048 95.6478 10.88 96.1118 10.88Z" fill="#54412D"/>
<path d="M116.755 16.256C117.859 16.256 118.835 16.48 119.683 16.928C120.547 17.36 121.227 18.056 121.723 19.016C122.235 19.976 122.491 21.24 122.491 22.808C122.491 24.376 122.235 25.64 121.723 26.6C121.227 27.56 120.547 28.256 119.683 28.688C118.835 29.12 117.859 29.336 116.755 29.336C115.651 29.336 114.667 29.12 113.803 28.688C112.939 28.256 112.259 27.56 111.763 26.6C111.267 25.64 111.019 24.376 111.019 22.808C111.019 21.24 111.267 19.976 111.763 19.016C112.259 18.056 112.939 17.36 113.803 16.928C114.667 16.48 115.651 16.256 116.755 16.256ZM116.755 16.736C116.003 16.736 115.387 17.216 114.907 18.176C114.443 19.12 114.211 20.664 114.211 22.808C114.211 24.952 114.443 26.496 114.907 27.44C115.387 28.384 116.003 28.856 116.755 28.856C117.491 28.856 118.099 28.384 118.579 27.44C119.059 26.496 119.299 24.952 119.299 22.808C119.299 20.664 119.059 19.12 118.579 18.176C118.099 17.216 117.491 16.736 116.755 16.736Z" fill="#54412D"/>
<path d="M142.648 16.616V17.12C142.056 17.12 141.632 17.24 141.376 17.48C141.136 17.72 141.016 18.176 141.016 18.848V26.768C141.016 27.44 141.136 27.896 141.376 28.136C141.632 28.376 142.056 28.496 142.648 28.496V29C142.36 28.984 141.928 28.968 141.352 28.952C140.792 28.92 140.16 28.904 139.456 28.904C138.768 28.904 138.056 28.92 137.32 28.952C136.6 28.968 136.04 28.984 135.64 29V28.496C136.376 28.496 136.952 28.368 137.368 28.112C137.784 27.84 137.992 27.312 137.992 26.528V18.872C137.992 18.184 137.888 17.72 137.68 17.48C137.472 17.24 137.112 17.12 136.6 17.12V16.616C136.872 16.632 137.272 16.656 137.8 16.688C138.344 16.704 138.904 16.712 139.48 16.712C140.056 16.712 140.648 16.704 141.256 16.688C141.88 16.656 142.344 16.632 142.648 16.616ZM135.496 16.616V17.12C134.984 17.12 134.624 17.24 134.416 17.48C134.208 17.72 134.104 18.176 134.104 18.848V20.96C134.104 21.52 134.136 22 134.2 22.4C134.28 22.8 134.448 23.104 134.704 23.312C134.96 23.504 135.376 23.6 135.952 23.6C136.368 23.6 136.768 23.552 137.152 23.456C137.536 23.344 137.848 23.2 138.088 23.024V23.528C137.752 23.72 137.248 23.912 136.576 24.104C135.904 24.296 135.192 24.392 134.44 24.392C133.848 24.392 133.328 24.32 132.88 24.176C132.448 24.016 132.096 23.8 131.824 23.528C131.52 23.224 131.32 22.84 131.224 22.376C131.128 21.896 131.08 21.312 131.08 20.624V18.848C131.08 18.176 130.952 17.72 130.696 17.48C130.456 17.24 130.04 17.12 129.448 17.12V16.616C129.736 16.632 130.176 16.656 130.768 16.688C131.376 16.704 131.968 16.712 132.544 16.712C133.12 16.712 133.68 16.704 134.224 16.688C134.784 16.656 135.208 16.632 135.496 16.616Z" fill="#54412D"/>
<path d="M147.23 29.168C146.542 29.168 145.958 29.04 145.478 28.784C144.998 28.512 144.638 28.152 144.398 27.704C144.158 27.24 144.038 26.728 144.038 26.168C144.038 25.48 144.198 24.92 144.518 24.488C144.838 24.04 145.246 23.688 145.742 23.432C146.254 23.16 146.79 22.936 147.35 22.76C147.91 22.568 148.438 22.392 148.934 22.232C149.43 22.056 149.838 21.856 150.158 21.632C150.478 21.408 150.638 21.112 150.638 20.744V18.992C150.638 18.48 150.558 18.064 150.398 17.744C150.254 17.408 150.03 17.16 149.726 17C149.438 16.824 149.07 16.736 148.622 16.736C148.286 16.736 147.934 16.784 147.566 16.88C147.198 16.976 146.894 17.16 146.654 17.432C147.07 17.544 147.39 17.752 147.614 18.056C147.854 18.36 147.974 18.728 147.974 19.16C147.974 19.656 147.806 20.048 147.47 20.336C147.15 20.608 146.742 20.744 146.246 20.744C145.718 20.744 145.318 20.576 145.046 20.24C144.774 19.904 144.638 19.512 144.638 19.064C144.638 18.616 144.75 18.248 144.974 17.96C145.198 17.656 145.51 17.384 145.91 17.144C146.31 16.872 146.822 16.656 147.446 16.496C148.07 16.336 148.75 16.256 149.486 16.256C150.19 16.256 150.814 16.336 151.358 16.496C151.902 16.64 152.366 16.904 152.75 17.288C153.134 17.656 153.382 18.112 153.494 18.656C153.606 19.2 153.662 19.864 153.662 20.648V27.224C153.662 27.624 153.71 27.912 153.806 28.088C153.902 28.248 154.054 28.328 154.262 28.328C154.422 28.328 154.574 28.288 154.718 28.208C154.862 28.128 155.022 28.016 155.198 27.872L155.462 28.28C155.11 28.552 154.742 28.768 154.358 28.928C153.974 29.088 153.51 29.168 152.966 29.168C152.406 29.168 151.958 29.088 151.622 28.928C151.302 28.768 151.062 28.536 150.902 28.232C150.758 27.928 150.678 27.568 150.662 27.152C150.278 27.792 149.806 28.288 149.246 28.64C148.686 28.992 148.014 29.168 147.23 29.168ZM148.67 27.824C149.054 27.824 149.406 27.72 149.726 27.512C150.062 27.304 150.366 26.992 150.638 26.576V21.728C150.478 21.968 150.246 22.184 149.942 22.376C149.654 22.568 149.342 22.76 149.006 22.952C148.67 23.144 148.35 23.368 148.046 23.624C147.758 23.864 147.51 24.168 147.302 24.536C147.11 24.888 147.014 25.344 147.014 25.904C147.014 26.528 147.166 27.008 147.47 27.344C147.774 27.664 148.174 27.824 148.67 27.824Z" fill="#54412D"/>
<path d="M162.199 16.256C163.607 16.256 164.711 16.68 165.511 17.528C166.311 18.376 166.711 19.728 166.711 21.584H158.623L158.599 21.128H163.927C163.959 20.344 163.911 19.624 163.783 18.968C163.655 18.296 163.447 17.76 163.159 17.36C162.887 16.96 162.527 16.76 162.079 16.76C161.471 16.76 160.943 17.12 160.495 17.84C160.047 18.544 159.767 19.704 159.655 21.32L159.751 21.464C159.719 21.672 159.695 21.896 159.679 22.136C159.679 22.376 159.679 22.616 159.679 22.856C159.679 23.96 159.839 24.872 160.159 25.592C160.479 26.312 160.895 26.84 161.407 27.176C161.919 27.512 162.447 27.68 162.991 27.68C163.359 27.68 163.735 27.624 164.119 27.512C164.503 27.4 164.879 27.192 165.247 26.888C165.615 26.584 165.951 26.152 166.255 25.592L166.711 25.784C166.535 26.344 166.239 26.904 165.823 27.464C165.423 28.008 164.903 28.456 164.263 28.808C163.623 29.16 162.871 29.336 162.007 29.336C160.919 29.336 159.959 29.096 159.127 28.616C158.295 28.136 157.647 27.424 157.183 26.48C156.719 25.52 156.487 24.352 156.487 22.976C156.487 21.52 156.727 20.296 157.207 19.304C157.703 18.312 158.383 17.56 159.247 17.048C160.111 16.52 161.095 16.256 162.199 16.256Z" fill="#54412D"/>
<path d="M78.087 36.616V37.12C77.495 37.12 77.071 37.24 76.815 37.48C76.575 37.72 76.455 38.176 76.455 38.848V46.768C76.455 47.44 76.575 47.896 76.815 48.136C77.071 48.376 77.495 48.496 78.087 48.496V49C77.799 48.984 77.351 48.968 76.743 48.952C76.151 48.92 75.575 48.904 75.015 48.904C74.423 48.904 73.847 48.92 73.287 48.952C72.743 48.968 72.327 48.984 72.039 49V48.496C72.551 48.496 72.911 48.376 73.119 48.136C73.327 47.896 73.431 47.44 73.431 46.768V38.872C73.431 38.184 73.327 37.72 73.119 37.48C72.911 37.24 72.551 37.12 72.039 37.12V36.616C72.311 36.632 72.711 36.656 73.239 36.688C73.783 36.704 74.343 36.712 74.919 36.712C75.495 36.712 76.087 36.704 76.695 36.688C77.319 36.656 77.783 36.632 78.087 36.616ZM69.879 36.616V37.12C69.367 37.12 69.007 37.24 68.799 37.48C68.591 37.72 68.487 38.176 68.487 38.848V46.768C68.487 47.44 68.591 47.896 68.799 48.136C69.007 48.376 69.367 48.496 69.879 48.496V49C69.607 48.984 69.199 48.968 68.655 48.952C68.111 48.92 67.559 48.904 66.999 48.904C66.407 48.904 65.807 48.92 65.199 48.952C64.591 48.968 64.135 48.984 63.831 49V48.496C64.423 48.496 64.839 48.376 65.079 48.136C65.335 47.896 65.463 47.44 65.463 46.768V38.872C65.463 38.184 65.335 37.72 65.079 37.48C64.839 37.24 64.423 37.12 63.831 37.12V36.616C64.119 36.632 64.559 36.656 65.151 36.688C65.759 36.704 66.343 36.712 66.903 36.712C67.479 36.712 68.047 36.704 68.607 36.688C69.167 36.656 69.591 36.632 69.879 36.616ZM73.695 38.176L74.079 38.416L68.103 47.896L67.695 47.632L73.695 38.176Z" fill="#54412D"/>
<path d="M98.9368 36.616V37.12C98.3448 37.12 97.9208 37.24 97.6648 37.48C97.4248 37.72 97.3048 38.176 97.3048 38.848V46.768C97.3048 47.44 97.4248 47.896 97.6648 48.136C97.9208 48.376 98.3448 48.496 98.9368 48.496V49C98.6488 48.984 98.2008 48.968 97.5928 48.952C97.0008 48.92 96.4248 48.904 95.8648 48.904C95.2728 48.904 94.6968 48.92 94.1368 48.952C93.5768 48.968 93.1608 48.984 92.8888 49V48.496C93.4008 48.496 93.7608 48.376 93.9688 48.136C94.1768 47.896 94.2808 47.44 94.2808 46.768V38.848C94.2808 38.176 94.1768 37.72 93.9688 37.48C93.7608 37.24 93.4008 37.12 92.8888 37.12H91.1368C90.6248 37.12 90.2648 37.24 90.0568 37.48C89.8488 37.72 89.7448 38.176 89.7448 38.848V46.768C89.7448 47.44 89.8488 47.896 90.0568 48.136C90.2648 48.376 90.6248 48.496 91.1368 48.496V49C90.8648 48.984 90.4568 48.968 89.9128 48.952C89.3688 48.92 88.8168 48.904 88.2568 48.904C87.6648 48.904 87.0648 48.92 86.4568 48.952C85.8488 48.968 85.3928 48.984 85.0888 49V48.496C85.6808 48.496 86.0968 48.376 86.3368 48.136C86.5928 47.896 86.7208 47.44 86.7208 46.768V38.848C86.7208 38.176 86.5928 37.72 86.3368 37.48C86.0968 37.24 85.6808 37.12 85.0888 37.12V36.616C85.3768 36.632 85.8168 36.656 86.4088 36.688C87.0008 36.704 87.5848 36.712 88.1608 36.712C88.8328 36.712 89.4648 36.696 90.0568 36.664C90.6648 36.632 91.3288 36.616 92.0488 36.616C92.7848 36.616 93.4168 36.632 93.9448 36.664C94.4728 36.696 95.0808 36.712 95.7688 36.712C96.3448 36.712 96.9368 36.704 97.5448 36.688C98.1688 36.656 98.6328 36.632 98.9368 36.616Z" fill="#54412D"/>
<path d="M104.695 36.352V51.016C104.695 51.736 104.887 52.216 105.271 52.456C105.671 52.712 106.215 52.84 106.903 52.84V53.344C106.519 53.328 105.975 53.304 105.271 53.272C104.583 53.256 103.847 53.248 103.063 53.248C102.519 53.248 101.975 53.256 101.431 53.272C100.887 53.304 100.471 53.328 100.183 53.344V52.84C100.727 52.84 101.111 52.728 101.335 52.504C101.559 52.28 101.671 51.864 101.671 51.256V39.232C101.671 38.512 101.559 37.984 101.335 37.648C101.111 37.296 100.679 37.12 100.039 37.12V36.616C100.551 36.664 101.047 36.688 101.527 36.688C102.135 36.688 102.703 36.664 103.231 36.616C103.759 36.552 104.247 36.464 104.695 36.352ZM108.463 36.256C109.295 36.256 110.039 36.488 110.695 36.952C111.351 37.4 111.863 38.064 112.231 38.944C112.615 39.824 112.807 40.928 112.807 42.256C112.807 43.312 112.687 44.28 112.447 45.16C112.207 46.024 111.847 46.768 111.367 47.392C110.903 48.016 110.327 48.496 109.639 48.832C108.951 49.168 108.167 49.336 107.287 49.336C106.615 49.336 106.015 49.208 105.487 48.952C104.959 48.696 104.575 48.352 104.335 47.92L104.575 47.584C104.767 47.92 105.031 48.192 105.367 48.4C105.703 48.608 106.103 48.712 106.567 48.712C107.335 48.712 107.943 48.464 108.391 47.968C108.839 47.456 109.151 46.744 109.327 45.832C109.519 44.92 109.615 43.864 109.615 42.664C109.615 41.336 109.527 40.272 109.351 39.472C109.175 38.672 108.911 38.096 108.559 37.744C108.207 37.376 107.791 37.192 107.311 37.192C106.655 37.192 106.063 37.456 105.535 37.984C105.023 38.496 104.711 39.248 104.599 40.24L104.431 39.568C104.687 38.512 105.175 37.696 105.895 37.12C106.615 36.544 107.471 36.256 108.463 36.256Z" fill="#54412D"/>
<path d="M120.505 36.256C121.609 36.256 122.585 36.48 123.433 36.928C124.297 37.36 124.977 38.056 125.473 39.016C125.985 39.976 126.241 41.24 126.241 42.808C126.241 44.376 125.985 45.64 125.473 46.6C124.977 47.56 124.297 48.256 123.433 48.688C122.585 49.12 121.609 49.336 120.505 49.336C119.401 49.336 118.417 49.12 117.553 48.688C116.689 48.256 116.009 47.56 115.513 46.6C115.017 45.64 114.769 44.376 114.769 42.808C114.769 41.24 115.017 39.976 115.513 39.016C116.009 38.056 116.689 37.36 117.553 36.928C118.417 36.48 119.401 36.256 120.505 36.256ZM120.505 36.736C119.753 36.736 119.137 37.216 118.657 38.176C118.193 39.12 117.961 40.664 117.961 42.808C117.961 44.952 118.193 46.496 118.657 47.44C119.137 48.384 119.753 48.856 120.505 48.856C121.241 48.856 121.849 48.384 122.329 47.44C122.809 46.496 123.049 44.952 123.049 42.808C123.049 40.664 122.809 39.12 122.329 38.176C121.849 37.216 121.241 36.736 120.505 36.736Z" fill="#54412D"/>
<path d="M146.398 36.616V37.12C145.806 37.12 145.382 37.24 145.126 37.48C144.886 37.72 144.766 38.176 144.766 38.848V46.768C144.766 47.44 144.886 47.896 145.126 48.136C145.382 48.376 145.806 48.496 146.398 48.496V49C146.11 48.984 145.678 48.968 145.102 48.952C144.542 48.92 143.91 48.904 143.206 48.904C142.518 48.904 141.806 48.92 141.07 48.952C140.35 48.968 139.79 48.984 139.39 49V48.496C140.126 48.496 140.702 48.368 141.118 48.112C141.534 47.84 141.742 47.312 141.742 46.528V38.872C141.742 38.184 141.638 37.72 141.43 37.48C141.222 37.24 140.862 37.12 140.35 37.12V36.616C140.622 36.632 141.022 36.656 141.55 36.688C142.094 36.704 142.654 36.712 143.23 36.712C143.806 36.712 144.398 36.704 145.006 36.688C145.63 36.656 146.094 36.632 146.398 36.616ZM139.246 36.616V37.12C138.734 37.12 138.374 37.24 138.166 37.48C137.958 37.72 137.854 38.176 137.854 38.848V40.96C137.854 41.52 137.886 42 137.95 42.4C138.03 42.8 138.198 43.104 138.454 43.312C138.71 43.504 139.126 43.6 139.702 43.6C140.118 43.6 140.518 43.552 140.902 43.456C141.286 43.344 141.598 43.2 141.838 43.024V43.528C141.502 43.72 140.998 43.912 140.326 44.104C139.654 44.296 138.942 44.392 138.19 44.392C137.598 44.392 137.078 44.32 136.63 44.176C136.198 44.016 135.846 43.8 135.574 43.528C135.27 43.224 135.07 42.84 134.974 42.376C134.878 41.896 134.83 41.312 134.83 40.624V38.848C134.83 38.176 134.702 37.72 134.446 37.48C134.206 37.24 133.79 37.12 133.198 37.12V36.616C133.486 36.632 133.926 36.656 134.518 36.688C135.126 36.704 135.718 36.712 136.294 36.712C136.87 36.712 137.43 36.704 137.974 36.688C138.534 36.656 138.958 36.632 139.246 36.616Z" fill="#54412D"/>
<path d="M150.98 49.168C150.292 49.168 149.708 49.04 149.228 48.784C148.748 48.512 148.388 48.152 148.148 47.704C147.908 47.24 147.788 46.728 147.788 46.168C147.788 45.48 147.948 44.92 148.268 44.488C148.588 44.04 148.996 43.688 149.492 43.432C150.004 43.16 150.54 42.936 151.1 42.76C151.66 42.568 152.188 42.392 152.684 42.232C153.18 42.056 153.588 41.856 153.908 41.632C154.228 41.408 154.388 41.112 154.388 40.744V38.992C154.388 38.48 154.308 38.064 154.148 37.744C154.004 37.408 153.78 37.16 153.476 37C153.188 36.824 152.82 36.736 152.372 36.736C152.036 36.736 151.684 36.784 151.316 36.88C150.948 36.976 150.644 37.16 150.404 37.432C150.82 37.544 151.14 37.752 151.364 38.056C151.604 38.36 151.724 38.728 151.724 39.16C151.724 39.656 151.556 40.048 151.22 40.336C150.9 40.608 150.492 40.744 149.996 40.744C149.468 40.744 149.068 40.576 148.796 40.24C148.524 39.904 148.388 39.512 148.388 39.064C148.388 38.616 148.5 38.248 148.724 37.96C148.948 37.656 149.26 37.384 149.66 37.144C150.06 36.872 150.572 36.656 151.196 36.496C151.82 36.336 152.5 36.256 153.236 36.256C153.94 36.256 154.564 36.336 155.108 36.496C155.652 36.64 156.116 36.904 156.5 37.288C156.884 37.656 157.132 38.112 157.244 38.656C157.356 39.2 157.412 39.864 157.412 40.648V47.224C157.412 47.624 157.46 47.912 157.556 48.088C157.652 48.248 157.804 48.328 158.012 48.328C158.172 48.328 158.324 48.288 158.468 48.208C158.612 48.128 158.772 48.016 158.948 47.872L159.212 48.28C158.86 48.552 158.492 48.768 158.108 48.928C157.724 49.088 157.26 49.168 156.716 49.168C156.156 49.168 155.708 49.088 155.372 48.928C155.052 48.768 154.812 48.536 154.652 48.232C154.508 47.928 154.428 47.568 154.412 47.152C154.028 47.792 153.556 48.288 152.996 48.64C152.436 48.992 151.764 49.168 150.98 49.168ZM152.42 47.824C152.804 47.824 153.156 47.72 153.476 47.512C153.812 47.304 154.116 46.992 154.388 46.576V41.728C154.228 41.968 153.996 42.184 153.692 42.376C153.404 42.568 153.092 42.76 152.756 42.952C152.42 43.144 152.1 43.368 151.796 43.624C151.508 43.864 151.26 44.168 151.052 44.536C150.86 44.888 150.764 45.344 150.764 45.904C150.764 46.528 150.916 47.008 151.22 47.344C151.524 47.664 151.924 47.824 152.42 47.824Z" fill="#54412D"/>
<path d="M174.157 36.616V37.12C173.565 37.12 173.141 37.24 172.885 37.48C172.645 37.72 172.525 38.176 172.525 38.848V46.768C172.525 47.44 172.645 47.896 172.885 48.136C173.141 48.376 173.565 48.496 174.157 48.496V49C173.869 48.984 173.421 48.968 172.813 48.952C172.221 48.92 171.645 48.904 171.085 48.904C170.493 48.904 169.917 48.92 169.357 48.952C168.813 48.968 168.397 48.984 168.109 49V48.496C168.621 48.496 168.981 48.376 169.189 48.136C169.397 47.896 169.501 47.44 169.501 46.768V38.872C169.501 38.184 169.397 37.72 169.189 37.48C168.981 37.24 168.621 37.12 168.109 37.12V36.616C168.381 36.632 168.781 36.656 169.309 36.688C169.853 36.704 170.413 36.712 170.989 36.712C171.565 36.712 172.157 36.704 172.765 36.688C173.389 36.656 173.853 36.632 174.157 36.616ZM165.949 36.616V37.12C165.437 37.12 165.077 37.24 164.869 37.48C164.661 37.72 164.557 38.176 164.557 38.848V46.768C164.557 47.44 164.661 47.896 164.869 48.136C165.077 48.376 165.437 48.496 165.949 48.496V49C165.677 48.984 165.269 48.968 164.725 48.952C164.181 48.92 163.629 48.904 163.069 48.904C162.477 48.904 161.877 48.92 161.269 48.952C160.661 48.968 160.205 48.984 159.901 49V48.496C160.493 48.496 160.909 48.376 161.149 48.136C161.405 47.896 161.533 47.44 161.533 46.768V38.872C161.533 38.184 161.405 37.72 161.149 37.48C160.909 37.24 160.493 37.12 159.901 37.12V36.616C160.189 36.632 160.629 36.656 161.221 36.688C161.829 36.704 162.413 36.712 162.973 36.712C163.549 36.712 164.117 36.704 164.677 36.688C165.237 36.656 165.661 36.632 165.949 36.616ZM169.765 38.176L170.149 38.416L164.173 47.896L163.765 47.632L169.765 38.176ZM170.221 29.944C170.685 29.944 171.069 30.096 171.373 30.4C171.677 30.704 171.829 31.088 171.829 31.552C171.829 31.936 171.709 32.288 171.469 32.608C171.229 32.928 170.941 33.192 170.605 33.4C170.205 33.64 169.709 33.84 169.117 34C168.525 34.16 167.821 34.24 167.005 34.24C166.173 34.24 165.461 34.16 164.869 34C164.277 33.84 163.789 33.64 163.405 33.4C163.053 33.192 162.757 32.928 162.517 32.608C162.293 32.288 162.181 31.936 162.181 31.552C162.181 31.088 162.325 30.704 162.613 30.4C162.917 30.096 163.309 29.944 163.789 29.944C164.237 29.944 164.613 30.096 164.917 30.4C165.237 30.688 165.397 31.08 165.397 31.576C165.397 31.976 165.285 32.304 165.061 32.56C164.837 32.816 164.549 32.992 164.197 33.088C164.565 33.344 165.021 33.52 165.565 33.616C166.109 33.712 166.589 33.76 167.005 33.76C167.421 33.76 167.893 33.712 168.421 33.616C168.965 33.52 169.429 33.344 169.813 33.088C169.445 32.992 169.149 32.816 168.925 32.56C168.717 32.288 168.613 31.96 168.613 31.576C168.613 31.08 168.765 30.688 169.069 30.4C169.389 30.096 169.773 29.944 170.221 29.944Z" fill="#54412D"/>
<defs>
<clipPath id="clip0_406_4">
<rect width="50" height="50" fill="white"/>
</clipPath>
</defs>
</svg>
